<svg width="66" height="24" viewBox="0 0 66 24" fill="none" xmlns="http://www.w3.org/2000/svg">
<path d="M17.3589 8.89277C17.3835 12.8779 15.8282 16.2873 13.4353 19.3831C12.1672 21.0237 10.6215 22.3939 9.10757 23.7957C8.81196 24.0694 8.53241 24.0679 8.25443 23.7923C6.87184 22.4219 5.40544 21.1337 4.17846 19.6102C3.92098 19.2905 3.95651 19.0673 4.15307 18.7591C4.76858 17.7942 5.36169 16.8151 5.96544 15.8426C6.10955 15.6105 6.22486 15.4419 5.94742 15.1615C5.8961 15.115 5.86256 15.0523 5.85252 14.984C5.82525 14.8504 5.92538 14.7831 6.1934 14.3832C6.27344 14.2638 6.29294 14.2274 6.35043 14.1979C6.51343 14.1143 6.71809 14.2262 6.77722 14.2478C8.09652 14.7478 9.5595 14.7173 10.8566 14.1628C13.1887 13.2109 14.4892 10.9171 14.3097 8.74068C14.0824 5.98534 12.271 3.97873 9.77962 3.53676C7.29672 3.09629 4.97962 4.18921 3.77639 6.36836C2.61209 8.477 2.96202 11.0176 4.67126 12.8654C5.2719 13.5147 5.28119 13.601 4.81466 14.1672C4.74353 14.2536 4.67687 14.3928 4.5463 14.3187C4.09884 14.0647 3.98676 14.4265 3.82228 14.6922C3.43068 15.3247 3.03801 15.9566 2.65488 16.5942C2.49042 16.8679 2.36478 16.9868 2.15921 16.6148C1.09812 14.6947 0.361202 12.673 0.107417 10.4829C-0.0404711 9.20671 -0.0657336 7.94317 0.226417 6.68315C1.05217 3.12179 4.18548 0.440269 7.83305 0.0487306C12.4272 -0.444409 16.7225 2.8603 17.3503 7.46654C17.414 7.93374 17.3589 8.41698 17.3589 8.89277Z" fill="#3E9F50"/>
<path d="M8.69161 13.2174C6.30308 13.206 4.52352 11.3897 4.53941 8.9793C4.54541 7.88145 4.98869 6.8308 5.77201 6.05783C6.55533 5.28487 7.61472 4.85271 8.71777 4.85616C9.27398 4.85817 9.82432 4.9694 10.3373 5.18348C10.8502 5.39755 11.3157 5.71026 11.707 6.10369C12.0983 6.49711 12.4078 6.96352 12.6176 7.47619C12.8275 7.98886 12.9337 8.53771 12.9301 9.0913C12.9253 9.63959 12.8117 10.1815 12.5959 10.686C12.38 11.1905 12.0662 11.6476 11.6723 12.031C11.2785 12.4144 10.8124 12.7165 10.3009 12.9201C9.78936 13.1237 9.24247 13.2247 8.69161 13.2174Z" fill="#C60037"/>
<path d="M30.7028 23.774C29.0684 23.774 27.5971 23.4909 26.289 22.9248C25.0269 22.3938 23.9178 21.5579 23.0621 20.4928C22.219 19.4378 21.6838 18.1845 21.4564 16.733L25.3349 16.1462C25.6658 17.464 26.3458 18.4831 27.3749 19.2035C28.4176 19.9284 29.6638 20.3067 30.9354 20.2844C31.701 20.2895 32.4619 20.1641 33.185 19.9138C33.837 19.6993 34.4258 19.328 34.8992 18.8329C35.3391 18.3591 35.5757 17.733 35.5586 17.0881C35.5614 16.7953 35.5088 16.5046 35.4035 16.2311C35.3 15.9687 35.1443 15.7297 34.9458 15.5286C34.7172 15.303 34.4557 15.113 34.1701 14.965C33.8215 14.7818 33.455 14.6343 33.0764 14.5249L27.3051 12.8264C26.7591 12.6645 26.223 12.4712 25.6995 12.2474C25.1092 11.9956 24.5601 11.6573 24.0705 11.2437C23.5401 10.7927 23.1118 10.2348 22.8139 9.60697C22.4881 8.94298 22.3252 8.12203 22.3252 7.14411C22.3252 5.71345 22.6898 4.51163 23.419 3.53866C24.1481 2.56589 25.1306 1.83759 26.3665 1.35377C27.681 0.85622 29.0795 0.615075 30.4856 0.643483C32.0161 0.65387 33.3814 0.913807 34.5813 1.42329C35.7493 1.9096 36.7819 2.66977 37.591 3.63901C38.3976 4.60675 38.9665 5.77512 39.2975 7.14411L35.2794 7.83897C35.1359 7.10299 34.8077 6.41511 34.3252 5.83938C33.8582 5.29147 33.2683 4.86041 32.6033 4.58095C31.9179 4.2912 31.1833 4.13398 30.4389 4.11769C29.7339 4.10105 29.0319 4.2136 28.3679 4.44971C27.7807 4.64934 27.2527 4.99166 26.832 5.44565C26.4518 5.85808 26.2438 6.39918 26.2502 6.95886C26.2404 7.20307 26.2792 7.44681 26.3644 7.67603C26.4496 7.90525 26.5795 8.11543 26.7467 8.29447C27.095 8.65106 27.5154 8.93 27.98 9.11287C28.4675 9.31244 28.9676 9.48007 29.4771 9.61467L33.4797 10.7264C34.0278 10.8707 34.6432 11.0663 35.3258 11.3132C36.0259 11.5694 36.6885 11.9173 37.2963 12.3477C37.9407 12.8058 38.4735 13.4021 38.8553 14.0925C39.2638 14.8132 39.468 15.7294 39.468 16.841C39.468 17.994 39.2276 19.0054 38.7467 19.8752C38.273 20.737 37.6069 21.4792 36.7998 22.0447C35.9497 22.6365 35.0019 23.0755 33.9996 23.3417C32.9253 23.633 31.8163 23.7785 30.7028 23.774Z" fill="#1B1B1B"/>
<path d="M41.593 23.3108V1.07587H45.3319V23.3108H41.593Z" fill="#1B1B1B"/>
<path d="M48.4344 23.3108V1.07587H57.6651C57.8824 1.07587 58.1616 1.08359 58.5028 1.09904C58.8202 1.11191 59.1363 1.14544 59.4492 1.1994C60.7419 1.39504 61.8098 1.82222 62.6529 2.48095C63.4897 3.13186 64.1376 3.99251 64.5301 4.97469C64.9499 6.03902 65.158 7.17436 65.1428 8.31766C65.1571 9.45658 64.9462 10.5872 64.5222 11.6452C64.1252 12.6269 63.475 13.4871 62.6373 14.1389C61.7943 14.7978 60.7316 15.225 59.4492 15.4205C59.1596 15.4617 58.8415 15.4926 58.4951 15.5131C58.1484 15.5339 57.8718 15.5442 57.6651 15.544H52.1731V23.3108L48.4344 23.3108ZM52.1731 12.0698H57.51C57.7167 12.0698 57.9494 12.0595 58.2081 12.0389C58.4495 12.0213 58.6886 11.98 58.9218 11.9154C59.4819 11.7952 59.9928 11.5101 60.3879 11.097C60.7383 10.7169 60.9981 10.263 61.148 9.7691C61.2942 9.29891 61.37 8.80984 61.373 8.31765C61.3697 7.82297 61.2939 7.33141 61.148 6.8585C60.9994 6.36179 60.7395 5.90511 60.3879 5.52284C59.9927 5.10985 59.4819 4.82471 58.9218 4.7045C58.6888 4.64015 58.4495 4.60131 58.2081 4.58867C57.9495 4.57325 57.7167 4.56553 57.51 4.56549H52.1731V12.0698Z" fill="#1B1B1B"/>
</svg>
