<svg width="48" height="66" viewBox="0 0 48 66" fill="none" xmlns="http://www.w3.org/2000/svg">
<path d="M47.1506 24.7016C47.2163 35.3447 43.0625 44.4501 36.6718 52.718C33.2852 57.0995 29.1569 60.759 25.1138 64.5028C24.3243 65.2338 23.5777 65.2297 22.8353 64.4938C19.1428 60.8337 15.2265 57.3934 11.9496 53.3247C11.262 52.4709 11.3569 51.8747 11.8818 51.0517C13.5257 48.4745 15.1097 45.8596 16.7221 43.2626C17.107 42.6427 17.4149 42.1923 16.674 41.4434C16.5369 41.3194 16.4474 41.1519 16.4205 40.9695C16.3477 40.6127 16.6151 40.4329 17.3309 39.365C17.5447 39.046 17.5968 38.9488 17.7503 38.87C18.1856 38.6468 18.7322 38.9456 18.8901 39.0033C22.4136 40.3386 26.3208 40.2572 29.785 38.7763C36.0134 36.2339 39.4866 30.1079 39.0071 24.2954C38.4 16.9367 33.5624 11.5777 26.9086 10.3973C20.2775 9.22092 14.0893 12.1398 10.8758 17.9596C7.76632 23.5912 8.70087 30.3764 13.2657 35.3112C14.8699 37.0454 14.8947 37.2758 13.6487 38.7881C13.4587 39.0186 13.2807 39.3905 12.932 39.1925C11.737 38.5142 11.4377 39.4806 10.9984 40.1901C9.95252 41.8793 8.90383 43.5671 7.88062 45.2699C7.44139 46.0008 7.10583 46.3183 6.55683 45.3249C3.72298 40.1968 1.75488 34.7975 1.0771 28.9485C0.682136 25.54 0.614668 22.1655 1.39491 18.8003C3.60024 9.28902 11.9684 2.12749 21.7099 1.0818C33.9795 -0.235223 45.4511 8.59066 47.1278 20.8925C47.2978 22.1403 47.1506 23.4309 47.1506 24.7016Z" fill="#3E9F50"/>
<path d="M24.0029 36.2512C17.6238 36.2209 12.8712 31.37 12.9136 24.9326C12.9296 22.0006 14.1135 19.1946 16.2055 17.1303C18.2975 15.0659 21.1268 13.9117 24.0727 13.921C25.5582 13.9263 27.028 14.2234 28.3979 14.7951C29.7679 15.3668 31.011 16.202 32.056 17.2527C33.1011 18.3034 33.9276 19.5491 34.4881 20.9183C35.0487 22.2874 35.3323 23.7533 35.3227 25.2317C35.3098 26.6961 35.0065 28.1434 34.43 29.4908C33.8536 30.8381 33.0153 32.0587 31.9635 33.0827C30.9116 34.1066 29.6669 34.9136 28.3008 35.4574C26.9346 36.0011 25.4741 36.2709 24.0029 36.2512Z" fill="#C60037"/>
</svg>
