<svg width="66" height="24" viewBox="0 0 66 24" fill="none" xmlns="http://www.w3.org/2000/svg">
<path d="M17.3589 8.89277C17.3835 12.8779 15.8282 16.2873 13.4353 19.3831C12.1672 21.0237 10.6215 22.3939 9.10757 23.7957C8.81196 24.0694 8.53241 24.0679 8.25443 23.7923C6.87184 22.4219 5.40544 21.1337 4.17846 19.6102C3.92098 19.2905 3.95651 19.0673 4.15307 18.7591C4.76858 17.7942 5.36169 16.8151 5.96544 15.8426C6.10955 15.6105 6.22486 15.4419 5.94742 15.1615C5.8961 15.115 5.86256 15.0523 5.85252 14.984C5.82525 14.8504 5.92538 14.7831 6.1934 14.3832C6.27344 14.2638 6.29294 14.2274 6.35043 14.1979C6.51343 14.1143 6.71809 14.2262 6.77722 14.2478C8.09652 14.7478 9.5595 14.7173 10.8566 14.1628C13.1887 13.2109 14.4892 10.9171 14.3097 8.74068C14.0824 5.98534 12.271 3.97873 9.77962 3.53676C7.29672 3.09629 4.97962 4.18921 3.77639 6.36836C2.61209 8.477 2.96202 11.0176 4.67126 12.8654C5.2719 13.5147 5.28119 13.601 4.81466 14.1672C4.74353 14.2536 4.67687 14.3928 4.5463 14.3187C4.09884 14.0647 3.98676 14.4265 3.82228 14.6922C3.43068 15.3247 3.03801 15.9566 2.65488 16.5942C2.49042 16.8679 2.36478 16.9868 2.15921 16.6148C1.09812 14.6947 0.361202 12.673 0.107417 10.4829C-0.0404711 9.20671 -0.0657336 7.94317 0.226417 6.68315C1.05217 3.12179 4.18548 0.440269 7.83305 0.0487306C12.4272 -0.444409 16.7225 2.8603 17.3503 7.46654C17.414 7.93374 17.3589 8.41698 17.3589 8.89277Z" fill="#3E9F50"/>
<path d="M8.69161 13.2172C6.30308 13.2058 4.52352 11.3895 4.53941 8.97912C4.54541 7.88127 4.98869 6.83062 5.77201 6.05765C6.55533 5.28468 7.61472 4.85252 8.71777 4.85598C9.27398 4.85799 9.82432 4.96922 10.3373 5.18329C10.8502 5.39737 11.3157 5.71008 11.707 6.1035C12.0983 6.49693 12.4078 6.96334 12.6176 7.47601C12.8275 7.98868 12.9337 8.53753 12.9301 9.09111C12.9253 9.63941 12.8117 10.1814 12.5959 10.6858C12.38 11.1903 12.0662 11.6474 11.6723 12.0308C11.2785 12.4142 10.8124 12.7163 10.3009 12.9199C9.78936 13.1235 9.24247 13.2246 8.69161 13.2172Z" fill="#C60037"/>
<path d="M30.7029 23.7739C29.0684 23.7739 27.5972 23.4908 26.2891 22.9246C25.027 22.3937 23.9179 21.5578 23.0621 20.4927C22.2191 19.4376 21.6838 18.1844 21.4564 16.7329L25.3349 16.1461C25.6658 17.4639 26.3458 18.483 27.375 19.2034C28.4176 19.9282 29.6638 20.3065 30.9354 20.2843C31.701 20.2893 32.4619 20.164 33.1851 19.9136C33.837 19.6992 34.4258 19.3279 34.8992 18.8328C35.3391 18.359 35.5757 17.7329 35.5586 17.088C35.5615 16.7952 35.5088 16.5044 35.4035 16.231C35.3 15.9686 35.1443 15.7296 34.9459 15.5284C34.7172 15.3029 34.4557 15.1129 34.1702 14.9649C33.8215 14.7816 33.4551 14.6342 33.0764 14.5248L27.3051 12.8263C26.7591 12.6644 26.223 12.4711 25.6995 12.2472C25.1092 11.9955 24.5602 11.6572 24.0705 11.2436C23.5401 10.7926 23.1118 10.2347 22.8139 9.60684C22.4881 8.94286 22.3252 8.12191 22.3252 7.14399C22.3252 5.71333 22.6898 4.51151 23.419 3.53854C24.1481 2.56577 25.1306 1.83747 26.3665 1.35364C27.681 0.856098 29.0795 0.614953 30.4856 0.643361C32.0161 0.653748 33.3814 0.913685 34.5814 1.42317C35.7494 1.90947 36.7819 2.66965 37.591 3.63889C38.3977 4.60663 38.9665 5.775 39.2975 7.14398L35.2794 7.83885C35.136 7.10287 34.8077 6.41498 34.3253 5.83926C33.8582 5.29135 33.2684 4.86029 32.6033 4.58083C31.9179 4.29108 31.1834 4.13386 30.4389 4.11757C29.734 4.10093 29.032 4.21348 28.3679 4.44959C27.7807 4.64922 27.2528 4.99154 26.832 5.44553C26.4518 5.85796 26.2438 6.39906 26.2502 6.95874C26.2404 7.20295 26.2792 7.44668 26.3644 7.67591C26.4496 7.90513 26.5796 8.11531 26.7467 8.29435C27.095 8.65093 27.5154 8.92988 27.9801 9.11275C28.4676 9.31232 28.9677 9.47995 29.4771 9.61455L33.4797 10.7263C34.0279 10.8706 34.6432 11.0662 35.3258 11.3131C36.0259 11.5693 36.6885 11.9172 37.2963 12.3476C37.9407 12.8056 38.4735 13.4019 38.8553 14.0924C39.2638 14.8131 39.4681 15.7292 39.4681 16.8409C39.4681 17.9939 39.2276 19.0053 38.7467 19.875C38.273 20.7369 37.6069 21.4791 36.7998 22.0445C35.9497 22.6364 35.002 23.0754 33.9996 23.3415C32.9253 23.6329 31.8163 23.7783 30.7029 23.7739Z" fill="#FAFAFA"/>
<path d="M41.593 23.3106V1.07568H45.3319V23.3106H41.593Z" fill="#FAFAFA"/>
<path d="M48.4344 23.3106V1.07568H57.6651C57.8824 1.07568 58.1616 1.08341 58.5029 1.09886C58.8202 1.11173 59.1363 1.14525 59.4492 1.19922C60.742 1.39486 61.8099 1.82204 62.6529 2.48077C63.4897 3.13168 64.1376 3.99233 64.5301 4.97451C64.9499 6.03884 65.158 7.17418 65.1429 8.31747C65.1571 9.4564 64.9462 10.587 64.5223 11.645C64.1252 12.6267 63.475 13.4869 62.6373 14.1387C61.7943 14.7976 60.7316 15.2248 59.4492 15.4203C59.1596 15.4615 58.8415 15.4924 58.4951 15.513C58.1484 15.5337 57.8718 15.544 57.6651 15.5438H52.1732V23.3106L48.4344 23.3106ZM52.1732 12.0696H57.51C57.7167 12.0696 57.9494 12.0593 58.2082 12.0388C58.4496 12.0212 58.6886 11.9798 58.9218 11.9152C59.4819 11.795 59.9928 11.5099 60.3879 11.0968C60.7383 10.7167 60.9982 10.2628 61.148 9.76891C61.2942 9.29873 61.3701 8.80966 61.373 8.31747C61.3697 7.82278 61.2939 7.33123 61.148 6.85832C60.9994 6.36161 60.7395 5.90492 60.3879 5.52265C59.9927 5.10966 59.4819 4.82453 58.9218 4.70431C58.6889 4.63996 58.4496 4.60113 58.2082 4.58849C57.9495 4.57307 57.7168 4.56534 57.51 4.56531H52.1732V12.0696Z" fill="#FAFAFA"/>
</svg>
